# xmcd
#
# Track frame offsets: 
#        150
#        16181
#        35083
#        46100
#        58780
#        75533
#        90248
#        104809
#        123604
#        137729
#        153909
#        168424
#        183500
#
# Disc length: 2682 seconds
#
# Revision: 0
# Processed by: cddbd v1.5.2PL0 Copyright (c) Steve Scherf et al.
# Submitted via: ExactAudioCopy v1.3
#
DISCID=a50a780d
DTITLE=urban pioneers - feast or famine
DYEAR=2016
DGENRE=Bluegrass
TTITLE0=maybelle's farewell
TTITLE1=sunrise after sunset
TTITLE2=he didn't know my name back then
TTITLE3=high on a mountain
TTITLE4=fly around my pretty little miss
TTITLE5=behind the wheel again
TTITLE6=goliath coming down
TTITLE7=lazy bones
TTITLE8=john brown's dream
TTITLE9=never had a waffle at a waffle house
TTITLE10=mary the elephant
TTITLE11=do you dream in color
TTITLE12=no blood in the stone
EXTD=
EXTT0=
EXTT1=
EXTT2=
EXTT3=
EXTT4=
EXTT5=
EXTT6=
EXTT7=
EXTT8=
EXTT9=
EXTT10=
EXTT11=
EXTT12=
PLAYORDER=
